<?xml version="1.0" encoding="UTF-8"?><svg id="_レイヤー_2" xmlns="http://www.w3.org/2000/svg" xmlns:xlink="http://www.w3.org/1999/xlink" viewBox="0 0 300.25 50"><defs><style>.cls-1{isolation:isolate;}.cls-2,.cls-3,.cls-4{stroke-width:0px;}.cls-3{fill:none;}.cls-4{fill:#18943b;}.cls-5{clip-path:url(#clippath);}</style><clipPath id="clippath"><rect class="cls-3" width="300.25" height="50"/></clipPath></defs><g id="_レイヤー_1-2"><g class="cls-1"><g class="cls-5"><path class="cls-4" d="M26.74701,3.62601c-9.48401,0-17.19901,7.716-17.19901,17.19998,0,9.483,7.715,17.19901,17.19901,17.19901s17.19897-7.716,17.19897-17.19901c0-9.48398-7.715-17.19998-17.19897-17.19998M26.91,39.86801c-10.35001,0-18.771-8.42102-18.771-18.772S16.56,2.32401,26.91,2.32401c10.35098,0,18.772,8.42099,18.772,18.772s-8.42102,18.772-18.772,18.772"/><path class="cls-4" d="M48.871,0C28.57999,10.57901,20.97101,14.60001,0,24.86899c5.23901.55701,22.242,1.39301,22.11401,1.37402l1.94299,23.75699S35.07599,26.354,48.871,0"/><path class="cls-2" d="M72.08398,22.785h3.57401v-1.939h-4.19699v-2.42102h3.83301v-1.91998h-3.83301v-2.74301h-1.92099v2.74301h-1.25601c.17902-.61301.33301-1.202.46899-1.797l.01501-.064-2.01001-.29001-.01398.05301c-.367,1.48798-.79102,3.03799-1.56802,4.27698v-1.63498h-2.21701v-3.28702h-1.84799v3.28702h-2.616v1.92099h2.34201c-.64801,2.28101-1.55402,4.20999-2.69299,5.73401l-.01901.026.88699,2.43198.06702-.09799c.81198-1.19199,1.57098-2.77399,2.03198-4.21799v8.09598h1.84799v-7.621c.45703.80402.87302,1.423,1.23801,1.841l.05099.05902,1.21802-1.74002-.035-.03598c-.92999-.94901-1.87201-1.974-2.47202-3.04401v-1.431h2.04202c-.10901.16101-.22.30399-.336.453l-.14999.194,1.92599,1.117.03198-.047c.505-.74802.841-1.38501,1.19-2.26202h1.87701v2.42102h-4.487v1.939h3.93399c-1.15201,1.96298-2.60699,3.466-4.70599,4.866l-.052.034,1.254,1.77499.05099-.039c1.76001-1.371,2.93402-2.64499,4.00601-4.35599v5.87698h1.92099v-5.875c.80402,1.66,1.90302,3.08902,3.44,4.479l.061.05502,1.00101-2.117-.03702-.03c-1.76199-1.43301-2.70599-2.578-3.84201-4.66901"/><path class="cls-2" d="M84.702,27.539v-4.89899h3.34299v-1.92102h-8.87897v1.92102h3.54297v5.15298c-.422.05399-.84198.11099-1.26099.16901-.82898.11301-1.686.22998-2.53601.314l-.065.00699.33002,1.97501.05798-.008c3.53702-.436,6.58701-.94199,9.32501-1.54401l.048-.01099v-1.83002l-.073.013c-1.13699.224-2.35699.435-3.83301.66101"/><path class="cls-2" d="M94.42599,25.80499c-.07401.61002-.14499,1.12201-.32498,1.698-.18802.63101-.341.97302-.61401.97302-.46701,0-.93701-.82202-1.14499-1.185-1.34402-2.43701-1.71201-5.93103-1.87802-8.72003h5.44601v-1.939h-1.89801l.99802-1.27798-.05103-.03702c-.89099-.64899-1.95999-1.28-2.93597-1.73099l-.04401-.021-1.16501,1.51498.06699.03302c.90601.453,1.69403.88901,2.54901,1.51898h-3.043c-.017-.94299-.017-1.901-.017-2.827v-.061h-2.04999l.00198.06201c.009.48199.02301.96301.03601,1.44501.013.45999.026.91998.035,1.38098h-9.53601v1.939h9.59399c.11401,2.72501.44702,6.65302,1.98502,9.55902.44.82898,1.64499,2.758,3.34201,2.758,1.71298,0,2.21997-2.87299,2.43597-4.099l.01102-.064-1.78799-1.01102-.01102.091Z"/><path class="cls-2" d="M103.19202,18.66602c1.40598-1.026,2.44897-1.99402,3.55399-3.29703,1.13901,1.298,2.345,2.40601,3.586,3.29703h-7.13998ZM111.32098,16.95099c-1.57397-1.03-2.74799-2.13599-3.48898-3.289l-.01801-.02798h-2.15399l-.01901.02701c-.76001,1.133-1.95398,2.27698-3.453,3.30798-1.388.94901-2.94397,1.75299-4.383,2.26401l-.07098.02499,1.13998,1.854.04901-.021c1.11899-.48599,1.97-.927,2.91098-1.509v.93201h9.77002v-.98599c.82599.51999,1.755,1.03098,2.83499,1.56097l.04901.02402,1.233-1.92502-.07001-.02698c-1.49899-.58002-3.03699-1.36502-4.33002-2.21002"/><path class="cls-2" d="M98.43799,24.36499h4.64502c-.48999,1.49301-1.06601,2.87601-1.71503,4.11102-.84299.01797-1.71597.01797-2.56.01797h-.06998l.289,2.013.05399-.00198c2.267-.04001,4.23401-.10101,6.01401-.181,2.67398-.12701,4.853-.28201,6.854-.487.289.418.48898.76898.72098,1.18201l.03101.05698,1.798-1.125.05002-.03198-.02902-.05099c-1.02701-1.75601-2.444-3.52002-4.207-5.24301l-.034-.035-1.64999,1.01102.05499.05399c.785.78699,1.41202,1.61899,2.069,2.49899-2.38199.12201-4.79999.211-7.19299.26501.64502-1.25201,1.224-2.561,1.78201-3.82901l.099-.22501h9.48599v-1.884h-16.48901v1.884Z"/><polygon class="cls-2" points="130.58441 20.91409 134.47137 20.91409 134.47137 18.84811 130.58441 18.84811 130.58441 13.70709 128.55438 13.70709 128.55438 18.84811 124.75739 18.84811 124.75739 20.91409 128.55438 20.91409 128.55438 28.25809 123.97638 28.25809 123.97638 30.3241 134.8894 30.3241 134.8894 28.25809 130.58441 28.25809 130.58441 20.91409"/><path class="cls-2" d="M124.40302,25.508l.92999-1.83899-.04199-.03101c-1.078-.79501-1.57703-1.16299-2.50101-2.189.75998-1.01102,1.26999-1.86801,1.81198-3.04102l.005-1.86697h-2.125v-2.83401h-1.99399v2.83401h-2.74301v1.90298h4.65601c-.85001,1.98502-2.62399,3.87299-4.879,5.19101l-.047.02698.84799,1.96701.06-.03699c.771-.47501,1.371-.931,2.10501-1.60202v6.93402h1.99399v-7.254c.58701.67599,1.13599,1.20297,1.862,1.78998l.05902.048Z"/><polygon class="cls-2" points="162.67719 18.80661 149.09821 18.80661 149.09821 6.8186 144.0242 6.8186 144.0242 35.68961 149.09821 35.68961 149.09821 23.42661 162.67719 23.42661 162.67719 35.68961 167.75122 35.68961 167.75122 6.8186 162.67719 6.8186 162.67719 18.80661"/><rect class="cls-2" x="204.14369" y="22.61976" width="21.10208" height="4.81704" transform="translate(189.04248 239.64935) rotate(-89.83345)"/><polygon class="cls-2" points="241.0921 6.78021 220.58112 6.7222 220.56812 11.3222 228.2771 11.3432 228.21008 35.2182 228.20911 35.6152 233.2821 35.63019 233.3501 11.35822 241.0791 11.37921 241.0921 6.78021"/><path class="cls-2" d="M185.68298,29.32901h-.00098c-.46802.836-1.10901,1.48898-1.90399,1.94299-.797.45499-1.68701.685-2.64398.685-.95703,0-1.84705-.23001-2.64404-.685-.79498-.453-1.43597-1.10599-1.90497-1.94299-.47101-.84-.71002-1.75803-.71002-2.73001,0-1.52802.50903-2.79401,1.55603-3.87,1.04199-1.073,2.25397-1.595,3.703-1.595,1.43994,0,2.64899.522,3.698,1.59601,1.04999,1.07498,1.55994,2.34097,1.55994,3.86899,0,.97299-.23895,1.89099-.70898,2.73001M181.14197,16.67001c-2.88293,0-5.30298,1.06097-7.19299,3.15298-1.71399,1.89499-2.58398,4.16199-2.58398,6.73999,0,2.60202.91803,4.90701,2.729,6.85101,1.81702,1.952,4.18799,2.94199,7.04797,2.94199,2.84802,0,5.21405-.98999,7.03204-2.94199,1.81-1.94501,2.729-4.25,2.729-6.85101,0-2.58899-.87-4.862-2.58502-6.75699-1.89001-2.08099-4.30396-3.13599-7.17603-3.13599"/><path class="cls-2" d="M205.28503,15.01501c-1.48401,0-2.93005.45297-4.29504,1.34598-.659.431-1.30798.979-1.94202,1.63501l-.00598-3.11301h-4.75897v20.80701h4.81897v-11.44699c.54803-1.38202,1.25299-2.45901,2.09503-3.203,1.112-.98502,2.27399-1.48401,3.453-1.48401.49298,0,1.12695.16501,1.88098.48999l.315.13501,2.41101-3.89401-.362-.202c-1.26904-.70999-2.48401-1.06998-3.60999-1.06998"/><path class="cls-2" d="M214.73596,5.59399c-.974.00101-1.77295.34302-2.45697,1.026-.68298.681-1.03101,1.517-1.034,2.48502-.00201.94998.341,1.77899,1.021,2.46399.67902.68799,1.50299,1.03699,2.45001,1.04001h.01099c.96002,0,1.79102-.345,2.47198-1.02502.68506-.68399,1.03302-1.51099,1.03601-2.45898.00201-.966-.34198-1.80399-1.02197-2.491-.67902-.68701-1.51202-1.03702-2.47705-1.04001"/><path class="cls-2" d="M243.52802,23.763c.32697-.703.72296-1.263,1.18097-1.67099.99402-.88303,2.15002-1.31201,3.55505-1.31201.84094.00201,1.65295.18399,2.41394.54099.75403.354,1.362.81702,1.80701,1.37701.23901.30099.45203.66699.63501,1.09201l-9.59198-.02701ZM257.91901,26.67801c-.01501-2.508-.70502-4.64502-2.04901-6.349-1.89197-2.41702-4.45801-3.647-7.659-3.65601-3.073,0-5.56702,1.19-7.41498,3.53799-1.44501,1.83301-2.18201,3.952-2.18903,6.298-.008,2.496.84601,4.76401,2.53699,6.741,1.729,2.021,4.14105,3.04901,7.20703,3.05798,1.33502,0,2.55902-.20798,3.63898-.61798,1.09399-.41699,2.091-1.03299,2.96301-1.83099.867-.79501,1.638-1.84201,2.29004-3.112l.177-.34601-3.57904-1.93301-.19598.32401c-.60101.99301-1.15002,1.70801-1.63202,2.12402-.47003.40598-1.05499.737-1.73999.987-.68402.24899-1.396.375-2.133.375-1.49103-.00403-2.70398-.51501-3.71002-1.56201-.80402-.83701-1.289-1.83701-1.47601-3.048l14.97101.04199-.00598-1.03198Z"/><path class="cls-2" d="M276.57996,29.806c-1.36292,1.70599-3.06494,2.535-5.22595,2.535-1.16003-.00299-2.21497-.263-3.13599-.77301-.90802-.50198-1.63098-1.216-2.15002-2.12201-.52399-.91599-.78796-1.90198-.78503-2.93198.005-1.60101.56805-2.922,1.72205-4.03799,1.15601-1.12003,2.57703-1.664,4.34302-1.664v-.397l.02295.397c2.23004.00699,3.93402.83899,5.21106,2.54398l.56097.74802,3.36102-2.07501-.51404-.86499c-.56396-.95099-1.26599-1.75-2.08398-2.37299-.80499-.612-1.78601-1.112-2.91504-1.487-1.12695-.37302-2.31201-.56403-3.55896-.56802-1.914,0-3.67798.431-5.24097,1.27902-1.58508.86099-2.85004,2.07898-3.76105,3.62097-.909,1.54001-1.37201,3.23102-1.37701,5.026-.00696,2.68701.97101,5.00201,2.90802,6.88,1.92499,1.86902,4.375,2.82001,7.323,2.82901,1.85602,0,3.54498-.366,5.01898-1.08701,1.50806-.737,2.72998-1.79498,3.63098-3.14301l.57104-.854-3.341-2.211-.58405.73001Z"/><path class="cls-2" d="M299.46301,20.09799c-.53802-1.259-1.38599-2.27701-2.52002-3.02499-1.13599-.75-2.45203-1.13199-3.91296-1.13501-1.39404-.008-2.75.32703-3.96704.98602-.15698.08398-.31598.17899-.48096.28497l.02893-10.55597-5.021-.01602-.08093,28.729-.00104.39801,5.02203.01401.03796-13.81903c.02002-.01898.039-.03897.06-.05597.95599-.79401,2.005-1.18103,3.20502-1.18103h.01599c1.03198.00403,1.86902.25601,2.48999.75403.62201.49597,1.05798,1.25998,1.297,2.26398.14301.60699.21301,1.86502.20703,3.74002l-.02197,8.31799,4.39893.013.02802-9.961c.00702-2.617-.25-4.49899-.78497-5.75201"/></g></g></g></svg>