<?xml version="1.0" encoding="UTF-8"?><svg id="_レイヤー_2" xmlns="http://www.w3.org/2000/svg" xmlns:xlink="http://www.w3.org/1999/xlink" viewBox="0 0 244 50"><defs><style>.cls-1{fill:#231815;}.cls-1,.cls-2,.cls-3{stroke-width:0px;}.cls-2{fill:#008db7;}.cls-4{isolation:isolate;}.cls-3{fill:none;}.cls-5{clip-path:url(#clippath);}</style><clipPath id="clippath"><rect class="cls-3" width="244" height="50"/></clipPath></defs><g id="_レイヤー_1-2"><g class="cls-4"><g class="cls-5"><path class="cls-2" d="M26.94702,3.62601c-9.48401,0-17.19904,7.71599-17.19904,17.2,0,9.48299,7.71503,17.199,17.19904,17.199s17.19897-7.716,17.19897-17.199c0-9.48401-7.71497-17.2-17.19897-17.2M27.10999,39.868c-10.34998,0-18.771-8.421-18.771-18.77199S16.76001,2.32401,27.10999,2.32401c10.35107,0,18.77197,8.42099,18.77197,18.772s-8.4209,18.77199-18.77197,18.77199"/><path class="cls-2" d="M49.07104,0C28.78003,10.57899,21.17102,14.60001.20001,24.869c5.23901.55699,22.242,1.393,22.11401,1.37399l1.94293,23.757S35.276,26.354,49.07104,0"/><path class="cls-1" d="M72.28406,22.03799h3.57397v-1.939h-4.19702v-2.42101h3.83301v-1.92h-3.83301v-2.743h-1.92102v2.743h-1.25598c.17896-.61299.33301-1.202.46899-1.797l.01501-.064-2.01001-.29001-.01404.05301c-.36694,1.48799-.79089,3.03799-1.56799,4.27699v-1.63499h-2.21692v-3.287h-1.84802v3.287h-2.61597v1.92099h2.34192c-.64795,2.28101-1.55396,4.21001-2.69299,5.73401l-.01904.026.88708,2.432.06702-.098c.81201-1.192,1.57092-2.774,2.03198-4.218v8.096h1.84802v-7.62099c.45691.804.87292,1.42299,1.23792,1.841l.05103.05899,1.21802-1.74001-.03503-.036c-.92993-.94901-1.87195-1.974-2.47192-3.04401v-1.431h2.04199c-.10901.16101-.22009.30402-.33606.453l-.15002.194,1.92603,1.117.03198-.047c.505-.748.84106-1.38501,1.19006-2.26201h1.87695v2.42101h-4.48694v1.939h3.93396c-1.15198,1.96301-2.60706,3.466-4.70605,4.866l-.052.034,1.25403,1.77499.05103-.039c1.76001-1.37099,2.93396-2.645,4.00598-4.356v5.87701h1.92102v-5.87499c.80396,1.65999,1.90295,3.08899,3.44006,4.47899l.06091.05501,1.00098-2.117-.03699-.03c-1.76196-1.433-2.70593-2.578-3.84192-4.66901"/><path class="cls-1" d="M84.90198,26.792v-4.89899h3.34302v-1.92101h-8.87903v1.92101h3.54309v5.15299c-.422.054-.84204.111-1.26111.169-.82898.11301-1.68591.23-2.53589.314l-.06506.007.32996,1.97501.05811-.008c3.53699-.436,6.58691-.94199,9.32495-1.544l.04797-.011v-1.83099l-.073.01399c-1.13696.224-2.35693.43501-3.83301.661"/><path class="cls-1" d="M94.62598,25.058c-.07397.61-.14502,1.122-.32495,1.698-.18799.631-.34106.97301-.61401.97301-.46704,0-.93701-.82201-1.14502-1.18501-1.34399-2.437-1.71204-5.93099-1.87793-8.71999h5.44592v-1.93901h-1.89795l.99792-1.278-.0509-.03699c-.89099-.649-1.96008-1.28001-2.93604-1.731l-.04407-.02101-1.16492,1.51501.06702.03299c.90601.453,1.69397.88901,2.54895,1.519h-3.04297c-.01697-.94299-.01697-1.901-.01697-2.827v-.061h-2.05005l.00195.06201c.00903.48199.02307.963.03601,1.44499.01306.46001.026.92.03503,1.381h-9.53601v1.93901h9.59399c.11401,2.72499.44702,6.653,1.98499,9.55899.44006.829,1.64502,2.758,3.34204,2.758,1.71301,0,2.21997-2.873,2.43604-4.099l.01099-.064-1.78809-1.011-.01099.091Z"/><path class="cls-1" d="M110.53296,17.91901h-7.13989c1.40491-1.026,2.44897-1.994,3.55396-3.29701,1.13904,1.298,2.34497,2.40601,3.58594,3.29701M111.521,16.20399c-1.57397-1.03-2.74695-2.136-3.48804-3.289l-.01794-.028h-2.15503l-.01794.02701c-.76099,1.133-1.95605,2.27699-3.45398,3.308-1.38806.94901-2.94409,1.75301-4.38208,2.26399l-.07092.02501,1.13892,1.854.0481-.02101c1.12-.48599,1.97192-.927,2.91199-1.509v.93201h9.76892v-.98599c.82703.51999,1.75708,1.03099,2.83704,1.56099l.04895.024,1.23206-1.925-.06995-.02699c-1.49902-.58-3.03711-1.36501-4.33008-2.21001"/><path class="cls-1" d="M98.63806,23.618h4.6449c-.48999,1.493-1.06592,2.87601-1.71497,4.11101-.84302.018-1.71594.018-2.55994.018h-.07007l.28906,2.012.05396-.00101c2.26697-.041,4.23401-.101,6.01404-.181,2.67395-.12599,4.85291-.282,6.854-.487.28894.418.48901.77.72095,1.18201l.03101.056,1.79797-1.123.05005-.032-.02905-.051c-1.02698-1.757-2.44397-3.521-4.20691-5.244l-.03406-.03401-1.65002,1.01001.05505.05499c.78503.78601,1.41199,1.619,2.06897,2.498-2.38196.122-4.79993.211-7.19299.26601.64502-1.25301,1.224-2.56201,1.78198-3.83l.099-.22501h9.48596v-1.884h-16.48889v1.884Z"/><polygon class="cls-1" points="130.78442 20.16699 134.67139 20.16699 134.67139 18.101 130.78442 18.101 130.78442 12.95999 128.75439 12.95999 128.75439 18.101 124.9574 18.101 124.9574 20.16699 128.75439 20.16699 128.75439 27.511 124.17639 27.511 124.17639 29.577 135.08936 29.577 135.08936 27.511 130.78442 27.511 130.78442 20.16699"/><path class="cls-1" d="M124.60303,24.761l.92993-1.839-.04199-.03099c-1.078-.795-1.5769-1.16301-2.50098-2.18901.76001-1.011,1.27002-1.868,1.81201-3.041l.005-1.86699h-2.125v-2.834h-1.99402v2.834h-2.74292v1.903h4.65601c-.8501,1.985-2.62402,3.873-4.87903,5.19099l-.047.02701.8479,1.967.06006-.037c.771-.47501,1.37097-.931,2.10498-1.60201v6.93401h1.99402v-7.254c.58704.67599,1.13599,1.203,1.86206,1.78999l.05896.048Z"/><path class="cls-1" d="M187.28503,30.382c-1.40808-.735-2.02002-1.714-2.29504-3.245v-8.814h-6.703v3.642h2.99902v7.34601l-3.39697,2.356,1.68298,4.102,4.46899-4.224c1.77502,2.479,4.49902,3.367,7.46802,3.367h16.52698v-3.64301h-16.31299c-1.53003,0-3.06104-.183-4.43799-.88699"/><path class="cls-1" d="M183.12305,14.86501l2.99902-2.66301c-1.4071-2.01999-2.9071-3.642-4.83508-5.233l-2.78601,2.57001c1.745,1.561,3.30603,3.367,4.62207,5.326"/><path class="cls-1" d="M190.83606,20.619h4.35596v1.92799h-4.35596v-1.92799ZM190.83606,16.27299h4.35596v1.897h-4.35596v-1.897ZM203.12903,18.17h-4.448v-1.897h4.448v1.897ZM203.12903,22.547h-4.448v-1.92799h4.448v1.92799ZM187.31604,30.26h3.52002v-5.14201h4.35596v4.95801h3.48901v-4.95801h4.448v1.194c0,.52-.12305.826-.73499.826h-2.479l.61194,3.122h3.67297c1.71301,0,2.448-.91801,2.448-2.57101v-14.17099h-4.24292c1.14893-1.033,2.18799-2.03601,3.41101-3.27701v-3.304h-18.32703v3.304h13.44104c-.375.86301-1.55408,2.118-2.59607,2.991-1.52795-1.08299-4.12195-2.683-4.12195-2.683l-2.44104,2.071c.58606.304,1.05103.57901,1.55505.89801h-6.01099l.00098,16.742Z"/><rect class="cls-1" x="224.31702" y="20.80176" width="17.81299" height="3.061"/><rect class="cls-1" x="224.65503" y="7.30469" width="17.047" height="3.061"/><rect class="cls-1" x="224.31702" y="16.33398" width="17.81299" height="3.061"/><rect class="cls-1" x="222.23596" y="11.77344" width="21.547" height="3.214"/><path class="cls-1" d="M219.05298,6.601c-.55103,4.009-2.08093,8.87601-4.71301,12.028l1.46899,4.836c.61206-.612.91809-.94899,1.43811-1.653v13.773h3.70288V14.71201c.9491-2.60201,1.56104-4.98901,1.95911-7.71301l-3.85608-.39799Z"/><path class="cls-1" d="M227.53101,28.473h11.29395v3.927h-11.29395v-3.927ZM223.73596,35.488h18.85303v-9.984h-18.85303v9.984Z"/><path class="cls-1" d="M167.57397,13.589h-11.59998v-2.76401h11.59998v2.76401ZM171.24707,7.61099h-18.79199v11.998c0,2.29601-.29309,5.429-.9281,7.868,0,0-.44897,2.07401-3.44897,5.537.70496.61,3.03003,2.602,3.03003,2.602,2.24792-3.084,3.36597-5.019,4.03992-8.08.52002-2.326.82605-5.69299.82605-8.08v-2.89799h15.27307V7.61099Z"/><polygon class="cls-1" points="167.91064 31.8407 165.40063 31.8407 165.40063 25.9337 170.5426 25.9337 170.5426 17.9147 167.32861 17.9147 167.32861 22.7807 165.40063 22.7807 165.40063 17.3947 162.27856 17.3947 162.27856 22.7807 160.32056 22.7807 160.32056 17.9147 157.1676 17.9147 157.1676 25.9337 162.27856 25.9337 162.27856 31.8407 159.76965 31.8407 159.76965 27.0357 156.40259 27.0357 156.40259 35.0957 171.27759 35.0957 171.27759 27.0357 167.91064 27.0357 167.91064 31.8407"/><polygon class="cls-1" points="151.39355 23.2849 149.40466 23.9109 149.40466 17.52789 151.45459 17.52789 151.45459 13.8549 149.40466 13.8549 149.40466 6.72391 145.82361 6.72391 145.82361 13.8549 142.94666 13.8549 142.94666 17.52789 145.82361 17.52789 145.82361 25.0379 142.63965 26.0399 143.00757 29.9569 150.87061 26.7399 151.39355 23.2849"/></g></g></g></svg>