<?xml version="1.0" encoding="UTF-8"?><svg id="_レイヤー_2" xmlns="http://www.w3.org/2000/svg" xmlns:xlink="http://www.w3.org/1999/xlink" viewBox="0 0 300.24799 50"><defs><style>.cls-1{isolation:isolate;}.cls-2{fill:none;}.cls-2,.cls-3{stroke-width:0px;}.cls-4{clip-path:url(#clippath-1);}.cls-3{fill:#fff;}.cls-5{clip-path:url(#clippath);}</style><clipPath id="clippath"><rect class="cls-2" width="300.24799" height="50"/></clipPath><clipPath id="clippath-1"><rect class="cls-2" width="300.25" height="50"/></clipPath></defs><g id="_レイヤー_1-2"><g class="cls-5"><g class="cls-1"><g class="cls-4"><path class="cls-3" d="M26.74701,3.62598c-9.48401,0-17.19901,7.71606-17.19901,17.19995,0,9.48315,7.715,17.19897,17.19901,17.19897s17.19897-7.71582,17.19897-17.19897c0-9.48389-7.715-17.19995-17.19897-17.19995M26.91,39.86792c-10.35001,0-18.771-8.4209-18.771-18.77197S16.56,2.32397,26.91,2.32397c10.35098,0,18.772,8.42114,18.772,18.77197s-8.42102,18.77197-18.772,18.77197"/><path class="cls-3" d="M48.871,0C28.57999,10.5791,20.97101,14.6001,0,24.8689c5.23901.55713,22.242,1.39307,22.11401,1.37402l1.94299,23.75708S35.07599,26.354,48.871,0"/><path class="cls-3" d="M58.495,18.96997h2.34201c-.64902,2.28198-1.55402,4.20996-2.69299,5.73413l-.02002.02588.888,2.43213.06702-.09814c.81198-1.19189,1.57098-2.7749,2.03198-4.21802v8.09595h1.84799v-7.62085c.45602.80298.87103,1.4209,1.237,1.84106l.05103.05884,1.19-1.69897.02899-.04102-.03601-.03687c-.92899-.948-1.871-1.97314-2.47101-3.04321v-1.43091h2.04202c-.10901.15991-.21802.30103-.33401.44995l-.15198.19702,1.92599,1.11694.03198-.04688c.504-.74707.84-1.38403,1.189-2.26196h1.87802v2.4209h-4.487v1.93896h3.93298c-1.151,1.96313-2.60599,3.46606-4.70499,4.86597l-.052.03418,1.21698,1.7229.03702.052.05099-.03906c1.76001-1.37085,2.93402-2.64502,4.00601-4.35596v5.87695h1.92099v-5.875c.80402,1.65918,1.90201,3.08911,3.44,4.479l.061.05518.98001-2.07397.01999-.04321-.03702-.02979c-1.76099-1.43311-2.70499-2.57812-3.84198-4.66919h3.57397v-1.93896h-4.19598v-2.4209h3.83301v-1.92017h-3.83301v-2.74292h-1.92099v2.74292h-1.25601c.17801-.61084.332-1.19995.46899-1.79688l.01401-.06396-2.009-.29102-.01398.05396c-.367,1.48804-.79102,3.03809-1.56903,4.2771v-1.63403h-2.216v-3.28809h-1.84799v3.28809h-2.616v1.91992Z"/><path class="cls-3" d="M90.436,28.12988c.44.8291,1.646,2.75708,3.34201,2.75708,1.71399,0,2.21997-2.87305,2.43597-4.09888l.01202-.06299-1.79001-1.01099-.01001.09082c-.07401.61108-.14499,1.12305-.32498,1.69702-.18701.6311-.341.97412-.61401.97412-.46802,0-.93799-.82397-1.14499-1.18506-1.34402-2.43701-1.71201-5.93091-1.87802-8.72095h5.44601v-1.93896h-1.89801l.99701-1.2771-.05099-.03711c-.89099-.64893-1.961-1.27979-2.935-1.73096l-.04401-.021-1.16501,1.51416.06601.03296c.90799.45386,1.69598.89087,2.55099,1.51904h-3.04401c-.017-.94214-.017-1.89917-.017-2.82617v-.06104h-2.04999l.00198.06201c.009.4812.022.96313.03601,1.44507.013.45996.026.91992.035,1.38013h-9.53601v1.93896h9.59399c.11301,2.72485.44601,6.65283,1.98502,9.55981"/><path class="cls-3" d="M79.17599,30.25806l.05801-.00708c3.53497-.43701,6.586-.94189,9.32498-1.54492l.048-.01001v-1.83203l-.073.01489c-1.13199.22314-2.38699.43921-3.83301.66016v-4.89917h3.34302v-1.9209h-8.87799v1.9209h3.54199v5.15308c-.42102.05396-.84003.11108-1.259.16895-.82999.11304-1.68802.2312-2.53702.31519l-.065.00586.32001,1.91699.009.05811Z"/><path class="cls-3" d="M105.44202,24.36499h9.48499v-1.88403h-16.48901v1.88403h4.64502c-.48999,1.4939-1.06702,2.87598-1.71503,4.11108-.84198.01782-1.71497.01782-2.56.01782h-.07098l.29001,2.01318.05399-.00098c2.27502-.04199,4.242-.10107,6.01501-.18213,2.67398-.12695,4.853-.28198,6.85199-.48706.289.41797.48999.76904.72198,1.18213l.03101.05591,1.84802-1.15503-.02902-.05103c-1.02798-1.75586-2.44299-3.521-4.207-5.24487l-.034-.03296-1.64999,1.01001.05399.05493c.789.78906,1.41501,1.61987,2.07001,2.49902-2.38199.12207-4.80099.21094-7.19299.26392.646-1.25195,1.224-2.56299,1.78302-3.83105l.099-.2229Z"/><path class="cls-3" d="M106.74701,15.37012c1.13898,1.29688,2.34399,2.40479,3.58499,3.2959h-7.13998c1.40698-1.02612,2.44998-1.9939,3.55499-3.2959M97.806,19.23291l-.07199.02612,1.13998,1.85303.04901-.021c1.117-.48511,1.96899-.92603,2.91098-1.50903v.93286h9.76901v-.98584c.82602.51807,1.755,1.02905,2.83701,1.56104l.04901.02393,1.23199-1.92603-.07001-.0271c-1.49701-.57886-3.035-1.36377-4.33002-2.20996-1.57397-1.03003-2.74698-2.13599-3.48798-3.28882l-.01801-.0271h-2.155l-.01801.0271c-.76199,1.13281-1.95599,2.27686-3.45401,3.30786-1.38699.948-2.94299,1.75195-4.38199,2.26294"/><path class="cls-3" d="M117.522,23.63501l-.047.0271.84799,1.96777.061-.03687c.771-.47607,1.37-.93213,2.10501-1.60303v6.93408h1.99298v-7.25415c.58701.67505,1.13599,1.20215,1.862,1.79004l.05902.0481.90698-1.79297.02301-.04614-.04199-.03101c-1.078-.79492-1.57703-1.16382-2.5-2.18896.75897-1.01099,1.26999-1.86792,1.81097-3.04102l.005-1.86597h-2.125v-2.83398h-1.99298v2.83398h-2.74301v1.9021h4.655c-.85001,1.98486-2.62299,3.8728-4.879,5.19092"/><polygon class="cls-3" points="128.5546 18.8479 124.7576 18.8479 124.7576 20.91406 128.5546 20.91406 128.5546 28.25806 123.97659 28.25806 123.97659 30.32397 134.88959 30.32397 134.88959 28.25806 130.58459 28.25806 130.58459 20.91406 134.47159 20.91406 134.47159 18.8479 130.58459 18.8479 130.58459 13.70703 128.5546 13.70703 128.5546 18.8479"/><polygon class="cls-3" points="144.02429 35.69019 149.09833 35.69019 149.09833 23.42627 162.67731 23.42627 162.67731 35.69019 167.75134 35.69019 167.75134 6.81836 162.67731 6.81836 162.67731 18.8064 149.09833 18.8064 149.09833 6.81836 144.02429 6.81836 144.02429 35.69019"/><rect class="cls-3" x="204.1431" y="22.61921" width="21.10312" height="4.81701" transform="translate(189.043 239.64871) rotate(-89.83346)"/><polygon class="cls-3" points="228.2088 35.61572 233.2818 35.62964 233.34979 11.35864 241.07983 11.37964 241.09277 6.78052 220.58081 6.72168 220.56781 11.32153 228.27679 11.34351 228.2088 35.61572"/><path class="cls-3" d="M181.13403,21.13501c1.43896,0,2.64899.521,3.698,1.59497,1.04999,1.07495,1.55994,2.34106,1.55994,3.86914,0,.9729-.23798,1.89087-.70898,2.72998-.46899.83594-1.10999,1.48999-1.90497,1.94287-1.59503.90894-3.69299.90894-5.28802,0-.79498-.4519-1.43597-1.10596-1.90497-1.94287-.47101-.83911-.70905-1.75708-.70905-2.72998,0-1.5271.50806-2.79419,1.55402-3.87012,1.04303-1.073,2.255-1.59399,3.70404-1.59399M173.94897,19.823c-1.71399,1.89502-2.58398,4.16211-2.58398,6.73999,0,2.60205.91803,4.90698,2.729,6.85107,1.81702,1.9519,4.18903,2.94189,7.04901,2.94189,2.84601,0,5.21198-.98999,7.03198-2.94189,1.81-1.94507,2.72803-4.25,2.72803-6.85107,0-2.58887-.87-4.86206-2.58502-6.75708-1.88898-2.08081-4.30298-3.13599-7.17499-3.13599-2.88397,0-5.30402,1.06104-7.19403,3.15308"/><path class="cls-3" d="M194.284,35.68994h4.81799v-11.44702c.54999-1.38281,1.25403-2.45996,2.09503-3.20288,1.112-.98511,2.27496-1.48413,3.45398-1.48413.49298,0,1.12598.16406,1.88098.48901l.315.13599,2.41003-3.8938-.362-.20215c-1.26801-.70996-2.48206-1.07007-3.60999-1.07007-1.48505,0-2.92902.45312-4.29303,1.34521h-.00104c-.65796.43188-1.30896.979-1.94299,1.63599l-.005-3.11401h-4.75897v20.80786Z"/><path class="cls-3" d="M214.716,12.60889h.01099c.96002,0,1.79102-.34497,2.47198-1.02588.68402-.68311,1.03204-1.51001,1.03503-2.45898.00299-.96606-.341-1.80396-1.021-2.49097s-1.51404-1.03711-2.47803-1.04004h-.01099c-.94202,0-1.76398.34595-2.44501,1.02588-.68298.68213-1.03101,1.51807-1.034,2.48608-.00299.94897.341,1.77808,1.02002,2.46411.67999.68701,1.50397,1.03687,2.45099,1.03979"/><path class="cls-3" d="M248.26404,20.78101c.84094.00195,1.65295.18408,2.41394.54199.75403.35303,1.362.81592,1.80798,1.37598.23804.30103.45105.66699.63403,1.09204l-9.591-.0271c.32599-.70386.72198-1.26392,1.17999-1.6709.99304-.88306,2.15002-1.31201,3.55505-1.31201M240.797,20.21191c-1.44598,1.83301-2.18298,3.95215-2.19,6.2981-.008,2.49609.84503,4.76392,2.53699,6.74097,1.72803,2.02002,4.14105,3.05005,7.20703,3.05811,1.33502,0,2.55902-.20801,3.63995-.61816,1.09302-.41699,2.08801-1.03296,2.96106-1.83081.86896-.79517,1.63898-1.84204,2.28998-3.11206l.177-.34595-3.57904-1.93311-.19495.32397c-.60004.99194-1.15002,1.70703-1.63098,2.12402-.47003.40503-1.05603.73706-1.74103.98706-.68304.24902-1.39502.375-2.13397.375-1.49103-.00415-2.703-.51611-3.70801-1.56299-.80505-.83618-1.29004-1.83618-1.47705-3.04712l14.97205.04199-.00702-1.03198c-.01501-2.50684-.70404-4.64404-2.04901-6.34985-1.89197-2.41699-4.45898-3.64722-7.659-3.65503-3.07196,0-5.56702,1.18994-7.414,3.53784"/><path class="cls-3" d="M262.42999,21.63696c-.909,1.54102-1.37299,3.23193-1.37799,5.02612-.00598,2.68604.97101,5.00098,2.909,6.87988,1.92401,1.86792,4.375,2.82007,7.323,2.8291,1.85504,0,3.54401-.36597,5.01801-1.08813,1.50903-.73682,2.73096-1.79395,3.63196-3.14282l.57104-.854-3.341-2.21021-.58502.729c-1.36298,1.70605-3.06494,2.53613-5.22498,2.53613-1.16003-.00293-2.216-.26416-3.13696-.77295-.90704-.5022-1.63-1.21704-2.14905-2.12305-.52399-.91406-.78699-1.90112-.784-2.93213.00397-1.59985.56598-2.9209,1.72101-4.03784,1.15503-1.11914,2.57703-1.66309,4.34302-1.66309v-.39795l.02295.39795c2.229.0061,3.93402.83789,5.21106,2.54297l.56097.74902,3.35999-2.07495-.51202-.86597c-.56696-.95215-1.26697-1.75-2.08496-2.37207-.80402-.61304-1.78503-1.11304-2.91504-1.48706-1.12598-.37402-2.31299-.56494-3.55896-.56787-1.914,0-3.67798.42993-5.242,1.27783-1.58502.86206-2.85004,2.08008-3.76001,3.62207"/><path class="cls-3" d="M283.50696,35.76392l5.02203.01514.03998-13.82007c.01807-.01904.03802-.03809.05902-.05493.94202-.78394,2.021-1.18115,3.20404-1.18115h.01599c1.03296.00317,1.87097.2561,2.49194.7522.62103.49683,1.05701,1.26001,1.29602,2.26587.14203.60693.21204,1.86499.20703,3.73901l-.02301,8.31909,4.39899.01196.02899-9.96094c.00702-2.61719-.25-4.49902-.78497-5.7522-.53802-1.25781-1.38599-2.27588-2.521-3.0249s-2.45203-1.1311-3.91302-1.13599h-.02203c-1.40698,0-2.73395.33203-3.94397.98608-.15796.08496-.31598.17896-.48096.28589l.02893-10.55688-5.021-.01416-.08301,29.12598Z"/></g></g></g></g></svg>