<?xml version="1.0" encoding="UTF-8"?><svg id="_レイヤー_2" xmlns="http://www.w3.org/2000/svg" viewBox="0 0 400 80"><defs><style>.cls-1{fill:#18943b;}.cls-1,.cls-2{stroke-width:0px;}.cls-2{fill:#fff;}.cls-3{fill:none;stroke:#18943b;}</style></defs><g id="_レイヤー_1-2"><path class="cls-3" d="M.5,70V10c-.00012-.62378.06079-1.2417.1825-1.85352s.30188-1.20581.54053-1.78198c.23877-.57642.53137-1.12378.87793-1.64258.34656-.51855.74036-.99854,1.18152-1.43945.44104-.44116.9209-.83496,1.43958-1.18164.51868-.34644,1.06616-.63916,1.64246-.87793.57629-.23853,1.17029-.4187,1.7821-.54053.61182-.12158,1.22961-.18237,1.85339-.18237h380c.62378,0,1.24158.06079,1.85327.18237.61182.12183,1.20581.302,1.7821.54053.57629.23877,1.12378.53149,1.64246.87793.51868.34668.99854.74048,1.43958,1.18164.44104.44092.83496.9209,1.18152,1.43945.34656.5188.63916,1.06616.87781,1.64258.23877.57617.41895,1.17017.54065,1.78198s.1825,1.22974.18262,1.85352v60c-.00012.62354-.06091,1.24146-.18262,1.85327s-.30188,1.20581-.54065,1.78198c-.23865.57642-.53125,1.12378-.87781,1.64258-.34656.51855-.74048.99854-1.18152,1.43945-.44104.44116-.9209.83496-1.43958,1.18164-.51868.34644-1.06616.63916-1.64246.87793-.57629.23853-1.17029.4187-1.7821.54053-.61182.12158-1.22949.18262-1.85327.18262H10c-.62378,0-1.24158-.06104-1.85339-.18262-.61182-.12183-1.20581-.302-1.7821-.54053-.57629-.23877-1.12378-.53149-1.64246-.87793-.51868-.34668-.99854-.74048-1.43958-1.18164-.44116-.44092-.83496-.9209-1.18152-1.43945-.34656-.5188-.63916-1.06616-.87793-1.64258-.23865-.57617-.41882-1.17017-.54053-1.78198s-.18262-1.22974-.1825-1.85327Z"/><path class="cls-1" d="M24.05664,19.31152v-3.00781h-4.48047v2.20801h-1.82422v-3.47168h6.30469v-.73633h-5.32812v-1.3916h12.55957v1.3916h-5.4082v.73633h6.30371v3.47168h-1.82422v-2.20801h-4.47949v3.00781h-1.82324ZM25.75195,27.23242c-.61914,0-1.05664-.09375-1.3125-.28027s-.38281-.49316-.38281-.91992v-1.2002h-4.625v-5.00781h10.96094v5.00781h-4.49609v.41602c0,.13867.03418.24023.10352.30371.06934.06445.2207.09668.45605.09668h3.52051c.4043,0,.68457-.12012.83984-.36035.1543-.24023.26367-.70117.32812-1.38379.19141.10645.45801.22168.79883.34375.3418.12305.62988.21094.86523.26367-.10742.79004-.24805,1.37891-.4248,1.76855-.17578.38867-.41309.64453-.71191.76758s-.69922.18457-1.19922.18457h-4.7207ZM20.15234,17.77637v-.99219h3.23145v.99219h-3.23145ZM20.15234,19.21582v-.97559h3.23145v.97559h-3.23145ZM21.24023,21.77637h2.81641v-.7207h-2.81641v.7207ZM21.24023,23.59961h2.81641v-.71973h-2.81641v.71973ZM25.89648,21.77637h2.70312v-.7207h-2.70312v.7207ZM25.89648,23.59961h2.70312v-.71973h-2.70312v.71973ZM26.51953,17.77637v-.99219h3.23242v.99219h-3.23242ZM26.51953,19.21582v-.97559h3.23242v.97559h-3.23242Z"/><path class="cls-1" d="M33.65625,16.87988v-1.45605h6.25586v1.45605h-6.25586ZM34.32813,26.81641v-4.6084h5.18359v4.6084h-5.18359ZM34.42383,19.13574v-1.47168h4.78418v1.47168h-4.78418ZM34.42383,21.3916v-1.47168h4.78418v1.47168h-4.78418ZM34.43945,14.63965v-1.50391h4.76855v1.50391h-4.76855ZM36.04004,25.34375h1.75977v-1.66406h-1.75977v1.66406ZM40.79199,26.78418v-5.68066h2.38379v-2.25586h-3.2959v-1.64746h3.2959v-2.04785c-.46875.05273-.93066.10352-1.38379.15137-.4541.04785-.87793.08301-1.27246.10449-.02148-.20312-.09375-.46973-.21484-.7998-.12305-.33105-.24414-.60254-.36133-.81641.54492,0,1.13867-.0293,1.78516-.08789.64453-.05859,1.29297-.13574,1.94336-.23242.65039-.0957,1.26367-.20996,1.83984-.34375.57617-.13281,1.06152-.28027,1.45605-.43945l1.15234,1.43945c-.41602.13867-.8877.26953-1.41602.3916-.52832.12305-1.0752.23828-1.63965.34473v2.33594h3.43945v1.64746h-3.43945v2.25586h2.47949v5.68066h-6.75195ZM42.67969,25.15234h2.97656v-2.41602h-2.97656v2.41602Z"/><path class="cls-1" d="M60.66406,26.62402c-1.10938-.12793-2.09082-.45312-2.94336-.97559-.85352-.52246-1.51758-1.2002-1.99219-2.03223s-.71289-1.78125-.71289-2.84863c0-.76758.18457-1.55176.55273-2.35156.36719-.7998.91992-1.50879,1.65625-2.12793-.85352.13867-1.70508.28809-2.55273.44824s-1.61523.30957-2.30371.44727c-.68848.13867-1.21875.25684-1.59277.35254l-.43164-2.06445c.35156-.02051.83984-.06934,1.46484-.14355.62305-.07422,1.32812-.16797,2.11133-.28027.78418-.1123,1.59473-.23438,2.43164-.36816.83789-.13281,1.64844-.26855,2.43262-.40723s1.4873-.27539,2.1123-.4082c.62305-.13379,1.11133-.25391,1.46289-.36035l.5127,1.95215c-.1709.01074-.37598.03223-.61621.06348-.24023.03223-.50977.07031-.80762.1123-.58691.0752-1.14746.25586-1.68066.54395s-1.00977.66211-1.43164,1.12012c-.42188.45898-.75488.98145-1,1.56836-.24609.58691-.36816,1.22168-.36816,1.90332,0,.82227.20801,1.50488.62402,2.04883s.98438.96777,1.7041,1.27148,1.52832.50977,2.4248.61621c-.16016.16016-.31543.36035-.46484.59961-.14941.24023-.27734.48047-.38379.7207-.10645.23926-.17676.43945-.20801.59961ZM62.00781,20.49609c-.20312-.3418-.46875-.69824-.7998-1.07227-.33105-.37305-.63477-.67676-.91211-.91211l.87988-.7041c.16016.12793.35156.31543.57617.56055s.44531.49609.66406.75195.38672.46973.50391.63965l-.91211.73633ZM63.44824,19.28027c-.20312-.33105-.47168-.68262-.80762-1.05664-.33594-.37305-.64355-.67188-.91992-.89551l.86328-.71973c.16016.12793.35449.31445.58398.55957s.45605.49316.67969.74414c.22461.25098.39453.4668.51172.64746l-.91113.7207Z"/><path class="cls-1" d="M74.23242,26.14355c-.04297-.16992-.12305-.37305-.24023-.60742s-.25391-.46094-.4082-.67969-.30664-.39746-.45605-.53613c1.46191-.22461,2.57324-.70117,3.33594-1.43262.7627-.73047,1.16504-1.5918,1.20801-2.58398.04297-.78906-.10156-1.49316-.43164-2.11133-.33105-.61914-.78125-1.12012-1.35156-1.50391-.57129-.38477-1.19824-.61328-1.88086-.68848-.08594.99219-.24512,2.00586-.48047,3.04004-.23438,1.03516-.55078,2.00586-.95117,2.91211s-.88867,1.6748-1.46484,2.30371c-.4375.46973-.86133.74121-1.27148.81641-.41016.07422-.8457.01562-1.30371-.17578-.44824-.19238-.84277-.49609-1.18457-.91211-.34082-.41602-.60254-.90918-.7832-1.48047-.18164-.57031-.25586-1.18164-.22461-1.83203.05371-.9707.2832-1.8584.68848-2.66406.40527-.80469.94922-1.50098,1.63184-2.08789.68262-.58594,1.4668-1.0293,2.35156-1.32812.88574-.29785,1.83008-.4209,2.83203-.36816.81055.04297,1.57422.22461,2.28906.54395.71387.32031,1.33984.76074,1.87891,1.32031.53906.56055.95508,1.20801,1.24805,1.94434.29297.73535.41406,1.54102.36035,2.41602-.0752,1.46094-.58691,2.68555-1.53613,3.67188s-2.23438,1.66113-3.85547,2.02344ZM69.03223,22.91211c.11719.08496.23926.12793.36816.12793.12695,0,.25586-.06445.38379-.19238.38379-.38379.73828-.92773,1.06348-1.63184.32617-.7041.59766-1.49805.81641-2.38379s.35938-1.78613.42383-2.7041c-.73633.1709-1.38867.48047-1.95996.92773-.57129.44824-1.02148.99023-1.35254,1.62402-.33008.63477-.51758,1.33105-.55957,2.08789-.02148.50195.0459.93652.2002,1.30469s.35938.64746.61621.83984Z"/><path class="cls-1" d="M86.67969,26.49609c-.78906.0957-1.48828.06152-2.0957-.10449-.60742-.16504-1.08203-.43945-1.42383-.82324-.3418-.38477-.51172-.86426-.51172-1.44043,0-.75684.30664-1.50098.91992-2.23145.61328-.73145,1.45801-1.32617,2.53516-1.78418v-2.41602c-.58594.04199-1.1543.07422-1.70312.0957-.5498.02148-1.05859.02148-1.52832,0l-.09668-1.83984c.40625.04297.90234.05566,1.48828.04004.58691-.0166,1.2002-.05664,1.83984-.12012v-2.57617l1.77637.01562v2.35254c.5332-.08496,1.03223-.17871,1.49609-.28027.46387-.10059.84473-.20996,1.14355-.32812l.19238,1.76074c-.37402.13867-.80566.26074-1.2959.36719-.49023.10742-1.00293.20312-1.53613.28809v2.09668c.37402-.08594.7627-.14941,1.16797-.19238.40527-.04199.82715-.06445,1.26465-.06445,1.02344,0,1.89551.1582,2.61523.47266.7207.31445,1.2666.73535,1.64062,1.26367.37305.52832.55957,1.12305.55957,1.78418,0,1.02441-.30957,1.8291-.92773,2.41602-.61914.58691-1.45605.87402-2.5127.86426-.82031,0-1.51172-.20508-2.07129-.61621-.55957-.41016-.96289-1.02148-1.20801-1.83203.24512-.07422.54395-.18945.89648-.34375.35156-.15527.62891-.30176.83203-.44043.26562.88574.77734,1.32812,1.53516,1.32812.46875,0,.82617-.13574,1.07227-.4082.24512-.27148.36719-.61035.36719-1.01562,0-.52246-.23438-.95703-.70312-1.30371-.46973-.34668-1.17383-.52051-2.1123-.52051-.85352,0-1.65918.10645-2.41602.32031v3.9834c0,.39551-.09082.68555-.27246.87207s-.49023.30664-.92773.36035ZM85.52734,24.7998c.20312.01074.34961-.01074.44043-.06348.09082-.05371.13574-.14941.13574-.28809v-2.44824c-.49023.29883-.87891.62402-1.16797.97559-.28711.35254-.43164.7041-.43164,1.05664,0,.24512.09082.43164.27148.55957.18164.12793.43262.19727.75195.20801ZM94.82422,19.08789c-.25586-.25586-.60352-.53613-1.04004-.83984-.4375-.30371-.88574-.5918-1.34473-.86426-.45801-.27148-.86914-.47656-1.23145-.61621l1.00781-1.43945c.38379.14941.80566.35156,1.26465.60742.45801.25684.90625.52832,1.34375.81641s.80469.56543,1.10352.83203c-.10645.11719-.2373.27734-.3916.48047-.15527.20215-.29883.39941-.43262.5918-.13281.19141-.22656.33594-.2793.43164Z"/><path class="cls-1" d="M98.18359,27.12012v-14.12793h6.25586v5.43945h-4.41602v8.68848h-1.83984ZM100.02344,15.15234h2.625v-.84863h-2.625v.84863ZM100.02344,17.13574h2.625v-.87988h-2.625v.87988ZM101.91211,24.46387v-4.75195h6.03125v4.75195h-6.03125ZM103.73633,23.04004h2.38379v-1.8877h-2.38379v1.8877ZM108.71191,27.10352c-.01074-.16992-.03809-.37012-.08008-.59961s-.09082-.45312-.14355-.67188c-.05371-.21875-.1123-.39746-.17578-.53613h1.07129c.21387,0,.36816-.03711.46387-.1123.0957-.07422.14453-.20215.14453-.38379v-6.36816h-4.43164v-5.43945h6.28711v12.49609c0,.55469-.14648.96191-.43945,1.22363-.29395.26172-.77148.3916-1.43164.3916h-1.26465ZM107.35156,15.15234h2.64062v-.84863h-2.64062v.84863ZM107.35156,17.13574h2.64062v-.87988h-2.64062v.87988Z"/><path class="cls-1" d="M119.65625,24.38379c-.5332.29883-1.03516.41895-1.50391.36035-.46973-.05859-.88574-.36035-1.24805-.9043-.33105-.51172-.63477-1.11426-.91211-1.80762s-.51562-1.42969-.71289-2.20801-.3457-1.55762-.44727-2.33594-.14648-1.50977-.13672-2.19238l1.95312.01562c-.03223.52344-.0166,1.09375.04688,1.71289.06445.61816.16602,1.24219.30469,1.87207.13867.62891.30469,1.21289.49609,1.75195.19141.53809.40039.98926.62402,1.35156.14941.25586.31152.40234.4873.44043.17676.03711.36523-.00879.56836-.13672.25586-.16992.52539-.40527.80859-.7041.28223-.29785.51953-.58594.71094-.86328.05371.16016.14258.34082.26465.54395.12207.20215.25586.39941.39941.5918.14453.19238.27539.34668.39258.46387-.28809.42676-.61523.82129-.98438,1.18359-.36719.36328-.73828.65137-1.11133.86426ZM125.7041,21.3916c-.10645-.30859-.27246-.69238-.49609-1.15137s-.47949-.93652-.76855-1.43262c-.28711-.49609-.57617-.9541-.86328-1.37598-.28809-.4209-.55469-.74902-.80078-.9834l1.53711-.97656c.26562.2666.5625.62402.8877,1.07227s.64551.92578.95996,1.43164c.31445.50684.59375.99805.83984,1.47266.24512.47461.42188.87695.52734,1.20801-.33008.06348-.66406.16504-1,.30371s-.60938.2832-.82324.43164Z"/><path class="cls-1" d="M130.2959,20.06445c-.13867-.27734-.31445-.5625-.52832-.85645-.21289-.29297-.42578-.53027-.63965-.71191.69336-.28809,1.38965-.65332,2.08789-1.0957.69824-.44336,1.36523-.93359,2-1.47266.63477-.53809,1.20605-1.10352,1.71191-1.69531.50684-.59277.91992-1.18164,1.24023-1.76855l1.77539.24023c.3418.54395.76855,1.08301,1.28125,1.61621.51172.5332,1.07617,1.04004,1.69531,1.51953.61914.48047,1.26367.91504,1.93555,1.30371.67188.38965,1.33887.71289,2,.96875-.0957.12793-.21484.30078-.35938.51953s-.28516.44043-.42383.66406-.25098.42676-.33594.6084c-.4375-.21387-.88574-.45605-1.34375-.72852-.45898-.27148-.91211-.5625-1.36035-.87207v1.28027h-8.09668v-1.16797c-.4375.32031-.87891.62109-1.32812.9043-.44727.28223-.88477.53027-1.31152.74414ZM132.2793,27.05566v-6.12793h9.44141v6.12793h-9.44141ZM133.6875,17.83984h6.7207c-.68359-.51172-1.32031-1.06348-1.91211-1.65625-.5918-.5918-1.09082-1.19727-1.49609-1.81543-.36328.57617-.83496,1.16211-1.41602,1.75977-.58203.59766-1.21289,1.16797-1.89648,1.71191ZM134.24805,25.36035h5.47266v-2.7207h-5.47266v2.7207Z"/><path class="cls-1" d="M149.67188,26.71973v-4.57617c-.7793.74707-1.43457,1.46191-1.96777,2.14453l-1.45605-1.34375c.44727-.36328.96484-.80859,1.55176-1.33594.58691-.52832,1.21094-1.05371,1.87207-1.57617v-2.16016c-.48047.10645-.94922.20508-1.4082.2959s-.82617.16309-1.10352.21582l-.40039-1.74414c.28809-.00977.70703-.06055,1.25586-.15137.5498-.09082,1.10156-.18945,1.65625-.2959v-2.99219h1.79199v2.52734c.13867-.03125.24023-.06836.30371-.11133l1.02441.76758-1.08789,2.17578c.61816-.37305,1.24219-.68164,1.87207-.92773.62891-.24512,1.2373-.36816,1.82422-.36816.8418,0,1.58887.1582,2.24023.47266.65039.31445,1.15918.7627,1.52734,1.34375s.55273,1.28223.55273,2.10352c0,1.22754-.44922,2.27246-1.34473,3.13672-.89551.86328-2.21875,1.45605-3.96777,1.77539-.04297-.16992-.12012-.37305-.23242-.60742-.11133-.23438-.2373-.46973-.37598-.7041s-.27734-.42676-.41602-.57617c.84277-.10645,1.59473-.28027,2.25684-.51953.66016-.24023,1.18359-.56543,1.56738-.97656.38379-.41016.57617-.91992.57617-1.52832,0-.75684-.20801-1.31934-.62402-1.6875s-1.00293-.55176-1.75977-.55176c-.58691,0-1.22168.15918-1.9043.47949s-1.35938.73047-2.03223,1.23242v6.06348h-1.79199Z"/><path class="cls-1" d="M169.17578,26.14355c-.9707,0-1.72461-.08203-2.26367-.24707-.53906-.16602-.91797-.44824-1.13672-.84863-.21875-.39941-.32715-.95703-.32715-1.67188v-4.0957c-.68262.07422-1.31543.15723-1.89648.24805s-1.0752.18359-1.47949.2793l-.17578-1.8877c.4043-.05273.91699-.11426,1.53516-.18359.61914-.06934,1.29102-.13672,2.0166-.2002v-3.44043h1.82324v3.28027c.56641-.05371,1.13867-.10156,1.7207-.14355.58105-.04297,1.14844-.08594,1.70312-.12891v-3.50391h1.85645v3.39258c.7041-.04297,1.34668-.07422,1.92871-.0957.58008-.02148,1.06836-.03223,1.46289-.03223v1.91992c-.41602-.03223-.91406-.05078-1.49512-.05664-.58105-.00488-1.21387.00293-1.89648.02441v1.02441c0,.5752-.09082,1.05078-.27246,1.42383-.18066.37305-.4873.66406-.91992.87207-.43164.20801-1.02637.34375-1.7832.4082-.04297-.27734-.12793-.58398-.25586-.9209-.12891-.33594-.27246-.60449-.43164-.80762.66016-.01074,1.12695-.09082,1.39941-.24023s.40723-.39453.40723-.73535v-.94434c-.55469.03223-1.12207.06934-1.70312.1123-.58203.04199-1.1543.09082-1.7207.14355v4.03223c0,.32031.05664.56836.16797.74414.1123.17578.3125.2959.60059.35938.28809.06445.69336.09668,1.21582.09668.39453,0,.86426-.02148,1.4082-.06445.54395-.04199,1.09375-.10156,1.64844-.17578s1.03418-.16504,1.43945-.27246c-.06445.18164-.12012.40039-.16797.65625s-.08203.50684-.10352.75195c-.02148.24609-.02734.44336-.0166.5918-.65039.10742-1.3623.18945-2.13574.24805s-1.49023.08789-2.15234.08789Z"/><path class="cls-1" d="M128.26563,41.79785c1.4043-2.33984,3.82227-3.50977,7.25391-3.50977s5.85059,1.16992,7.25391,3.50977c1.4043,2.33984,2.10645,5.58594,2.10645,9.73828,0,4.2002-.70215,7.48242-2.10645,9.8457-1.40332,2.36426-3.82227,3.5459-7.25391,3.5459s-5.84961-1.18164-7.25391-3.5459c-1.4043-2.36328-2.10547-5.64551-2.10547-9.8457,0-4.15234.70117-7.39844,2.10547-9.73828ZM140.4707,46.60352c-.25293-1.34375-.7627-2.44141-1.53125-3.29395-.76758-.85156-1.90723-1.27734-3.41992-1.27734-1.51172,0-2.65234.42578-3.41992,1.27734-.76758.85254-1.27734,1.9502-1.5293,3.29395-.25195,1.34473-.37891,2.98828-.37891,4.93262,0,2.01562.12109,3.70801.36035,5.07617s.75,2.47168,1.53027,3.31152c.7793.84082,1.92578,1.25977,3.4375,1.25977,1.5127,0,2.6582-.41895,3.43848-1.25977.78027-.83984,1.29004-1.94336,1.53027-3.31152.23926-1.36816.35938-3.06055.35938-5.07617,0-1.94434-.125-3.58789-.37695-4.93262Z"/><path class="cls-1" d="M165.86816,41.92383l-10.00781,23.07617h-4.13965l10.11523-22.64355h-13.32031v-3.49219h17.35254v3.05957Z"/><path class="cls-1" d="M186.02832,41.92383l-10.00781,23.07617h-4.13965l10.11523-22.64355h-13.32031v-3.49219h17.35254v3.05957Z"/><path class="cls-1" d="M192.05859,40.01562c1.57031-1.24707,3.58203-1.87207,6.0293-1.87207,1.67969,0,3.13281.30078,4.35547.90039,1.22461.60059,2.14844,1.41602,2.77246,2.44824s.93652,2.19629.93652,3.49219c0,1.48828-.39648,2.75977-1.18848,3.81543-.79199,1.05664-1.74023,1.76465-2.84375,2.12402v.14453c1.41504.43164,2.52051,1.21777,3.31152,2.35742.79297,1.14062,1.18848,2.59863,1.18848,4.37402,0,1.41699-.32422,2.67676-.97168,3.78027-.64844,1.10449-1.6084,1.97461-2.88086,2.61035-1.27148.63574-2.7959.95312-4.57227.95312-2.5918,0-4.72168-.66602-6.38867-1.99707-1.66895-1.33203-2.5625-3.24609-2.68262-5.74219h3.95996c.0957,1.27246.58789,2.30957,1.47656,3.11328.88672.80469,2.08789,1.20605,3.59961,1.20605,1.46289,0,2.5918-.40137,3.38379-1.20605.79199-.80371,1.18848-1.84082,1.18848-3.11328,0-1.67969-.53516-2.87402-1.60254-3.58203s-2.70605-1.0625-4.91406-1.0625h-.93652v-3.38379h.97266c1.94336-.02344,3.42578-.34766,4.44531-.97168,1.02051-.62402,1.53125-1.6084,1.53125-2.95215,0-1.15234-.37305-2.07031-1.11719-2.75391-.74414-.68457-1.79883-1.02637-3.16797-1.02637-1.34375,0-2.3877.3418-3.13086,1.02637-.74414.68359-1.18848,1.5293-1.33203,2.53809h-3.99609c.14355-2.23242,1.00195-3.97168,2.57422-5.2207Z"/><path class="cls-1" d="M226.70801,50.24023v3.45605h-14.7959v-3.45605h14.7959Z"/><path class="cls-1" d="M234.26758,59.41992c2.30469-1.99219,4.12207-3.62988,5.4541-4.91406,1.33203-1.2832,2.44238-2.62207,3.33008-4.01367s1.33203-2.78418,1.33203-4.17578c0-1.44043-.3418-2.56836-1.02637-3.38477-.68359-.81543-1.75781-1.22363-3.22168-1.22363-1.41699,0-2.51465.4502-3.29395,1.34961-.78027.90039-1.19434,2.10645-1.24219,3.61816h-3.95996c.07227-2.73535.89355-4.8291,2.46582-6.28223,1.57227-1.45117,3.57031-2.17773,5.99414-2.17773,2.61523,0,4.66211.71973,6.13867,2.16016,1.47559,1.44043,2.21289,3.36035,2.21289,5.75977,0,1.72852-.4375,3.39062-1.31348,4.98633-.87598,1.59668-1.9209,3.02441-3.13184,4.28418-1.21289,1.25977-2.75391,2.71777-4.62598,4.37402l-1.62012,1.43945h11.41211v3.41992h-17.49609v-2.9873l2.5918-2.23242Z"/><path class="cls-1" d="M269.69141,42.28418h-12.05957v7.16406c.50391-.67188,1.25391-1.23633,2.25-1.69238.99512-.45508,2.05762-.68359,3.18652-.68359,2.01562,0,3.65332.43164,4.91406,1.2959,1.25977.86426,2.15918,1.95605,2.69922,3.27539.54004,1.32031.81055,2.71289.81055,4.17676,0,1.77637-.3418,3.35352-1.02637,4.7334-.68457,1.38086-1.7041,2.46582-3.05957,3.25781-1.35645.79199-3.01953,1.18848-4.98633,1.18848-2.61621,0-4.7168-.64844-6.30078-1.94434s-2.53125-3.01172-2.84375-5.14746h3.99609c.26367,1.12793.85156,2.02246,1.76367,2.68164.91211.66016,2.05273.99023,3.4209.99023,1.7041,0,2.98145-.51562,3.83398-1.54785.85156-1.03223,1.27832-2.39941,1.27832-4.10449,0-1.72754-.43262-3.05371-1.29688-3.97754-.86328-.92383-2.13672-1.38574-3.81543-1.38574-1.17676,0-2.16699.29395-2.96973.88184-.80469.58789-1.38672,1.38574-1.74609,2.39355h-3.88867v-15.15625h15.83984v3.60059Z"/><path class="cls-1" d="M291.54492,50.24023v3.45605h-14.79688v-3.45605h14.79688Z"/><path class="cls-1" d="M299.33789,40.01562c1.57129-1.24707,3.58203-1.87207,6.0293-1.87207,1.67969,0,3.13281.30078,4.35645.90039,1.22363.60059,2.14746,1.41602,2.77246,2.44824.62305,1.03223.93555,2.19629.93555,3.49219,0,1.48828-.39648,2.75977-1.1875,3.81543-.79297,1.05664-1.74023,1.76465-2.84375,2.12402v.14453c1.41504.43164,2.51953,1.21777,3.31152,2.35742.79199,1.14062,1.18848,2.59863,1.18848,4.37402,0,1.41699-.32422,2.67676-.97266,3.78027-.64844,1.10449-1.60742,1.97461-2.87988,2.61035s-2.7959.95312-4.57227.95312c-2.5918,0-4.72168-.66602-6.38965-1.99707-1.66797-1.33203-2.5625-3.24609-2.68164-5.74219h3.95898c.0957,1.27246.58789,2.30957,1.47656,3.11328.8877.80469,2.08789,1.20605,3.59961,1.20605,1.46387,0,2.5918-.40137,3.38477-1.20605.79102-.80371,1.1875-1.84082,1.1875-3.11328,0-1.67969-.53418-2.87402-1.60156-3.58203-1.06836-.70801-2.70703-1.0625-4.91406-1.0625h-.93652v-3.38379h.97168c1.94434-.02344,3.42578-.34766,4.44629-.97168s1.53027-1.6084,1.53027-2.95215c0-1.15234-.37305-2.07031-1.11621-2.75391-.74414-.68457-1.7998-1.02637-3.16797-1.02637-1.34473,0-2.3877.3418-3.13184,1.02637-.74414.68359-1.1875,1.5293-1.33203,2.53809h-3.99609c.14453-2.23242,1.00195-3.97168,2.57422-5.2207Z"/><path class="cls-1" d="M334.85156,41.92383l-10.00781,23.07617h-4.13965l10.11621-22.64355h-13.32031v-3.49219h17.35156v3.05957Z"/><path class="cls-1" d="M337.87598,59.52832v-3.09668l12.09668-17.35156h4.96777v16.88379h3.34766v3.56445h-3.34766v5.47168h-4.03223v-5.47168h-13.03223ZM351.08789,43.25586l-8.49609,12.70801h8.49609v-12.70801Z"/><path class="cls-1" d="M362.35645,45.37988c0-1.2959.32324-2.4834.97168-3.56348s1.62012-1.93848,2.91602-2.57422,2.87988-.9541,4.75195-.9541c1.84766,0,3.42578.31836,4.73438.9541,1.30762.63574,2.28516,1.49414,2.93359,2.57422s.97266,2.26758.97266,3.56348c0,1.34473-.3418,2.52637-1.02637,3.5459-.68457,1.02051-1.59082,1.80664-2.71777,2.3584,1.36719.50391,2.44727,1.32617,3.24023,2.46582.79102,1.14062,1.1875,2.47852,1.1875,4.01367,0,1.56055-.39648,2.94043-1.1875,4.14062-.79297,1.2002-1.89648,2.12402-3.3125,2.77148-1.41602.64844-3.02344.97266-4.82422.97266-1.7998,0-3.40234-.32422-4.80566-.97266-1.4043-.64746-2.50293-1.57129-3.29395-2.77148-.79297-1.2002-1.18848-2.58008-1.18848-4.14062,0-1.55957.39551-2.90332,1.18848-4.03125.79102-1.12793,1.85938-1.94434,3.20312-2.44824-2.49609-1.24805-3.74316-3.21582-3.74316-5.9043ZM367.12598,54.25391c-.99609.78027-1.49316,1.90234-1.49316,3.36621,0,1.36816.47852,2.47852,1.43945,3.33008.95898.85156,2.26758,1.27734,3.92383,1.27734,1.63184,0,2.92188-.43164,3.87012-1.2959.94824-.86328,1.42188-1.9668,1.42188-3.31152,0-1.44043-.48535-2.55566-1.45801-3.34766-.97168-.79199-2.25-1.18848-3.83398-1.18848s-2.87402.39062-3.87012,1.16992ZM374.45215,42.78809c-.84082-.71973-1.99219-1.08008-3.45605-1.08008-1.43945,0-2.58008.36035-3.41992,1.08008s-1.25977,1.76367-1.25977,3.13184c0,1.2002.4375,2.17773,1.31445,2.93359.875.75684,1.99805,1.13477,3.36523,1.13477,1.36816,0,2.49609-.38379,3.38477-1.15234.88672-.76758,1.33203-1.75195,1.33203-2.95215,0-1.34375-.4209-2.37598-1.26074-3.0957Z"/><rect class="cls-1" x="16" y="40" width="104" height="25"/><path class="cls-2" d="M44.05664,52.31152v-3.00781h-4.48047v2.20801h-1.82422v-3.47168h6.30469v-.73633h-5.32812v-1.3916h12.55957v1.3916h-5.4082v.73633h6.30371v3.47168h-1.82422v-2.20801h-4.47949v3.00781h-1.82324ZM45.75195,60.23242c-.61914,0-1.05664-.09375-1.3125-.28027s-.38281-.49316-.38281-.91992v-1.2002h-4.625v-5.00781h10.96094v5.00781h-4.49609v.41602c0,.13867.03418.24023.10352.30371.06934.06445.2207.09668.45605.09668h3.52051c.4043,0,.68457-.12012.83984-.36035.1543-.24023.26367-.70117.32812-1.38379.19141.10645.45801.22168.79883.34375.3418.12305.62988.21094.86523.26367-.10742.79004-.24805,1.37891-.4248,1.76855-.17578.38867-.41309.64453-.71191.76758s-.69922.18457-1.19922.18457h-4.7207ZM40.15234,50.77637v-.99219h3.23145v.99219h-3.23145ZM40.15234,52.21582v-.97559h3.23145v.97559h-3.23145ZM41.24023,54.77637h2.81641v-.7207h-2.81641v.7207ZM41.24023,56.59961h2.81641v-.71973h-2.81641v.71973ZM45.89648,54.77637h2.70312v-.7207h-2.70312v.7207ZM45.89648,56.59961h2.70312v-.71973h-2.70312v.71973ZM46.51953,50.77637v-.99219h3.23242v.99219h-3.23242ZM46.51953,52.21582v-.97559h3.23242v.97559h-3.23242Z"/><path class="cls-2" d="M54.91992,51.51172c-.20312-.19141-.42676-.38574-.67188-.58398-.24609-.19727-.52344-.37012-.83203-.51953.48047-.42676.93359-.91504,1.35938-1.46387.42773-.5498.80078-1.13086,1.12109-1.74414.31934-.61328.55469-1.20801.70312-1.78418l1.77637.48047c-.04297.15918-.09668.32227-.16016.4873-.06348.16602-.13379.33398-.20801.50391h9.36035v1.48828h-10.08008c-.33105.58691-.69824,1.1543-1.10449,1.7041-.40527.5498-.82617,1.02637-1.26367,1.43164ZM55.01563,60.34375c-.0957-.21289-.24805-.4873-.45508-.82422-.20898-.33594-.41992-.60449-.63281-.80762.76758-.21289,1.51758-.50684,2.24805-.87988s1.41016-.79492,2.04004-1.26367c-.42676-.3418-.85059-.65625-1.27246-.94434-.4209-.28809-.81836-.51172-1.19141-.67188l1.15234-1.28027c.4375.20312.88281.4541,1.33594.75195.45312.29883.90918.61914,1.36719.95996.69336-.7041,1.23828-1.42383,1.63281-2.16016h-6.35156v-1.56738h11.07129c-.03223.27734-.05859.62109-.08008,1.03223-.02148.41016-.03223.85547-.03223,1.33594,0,.85352.07227,1.59961.2168,2.23926.14355.64062.34375,1.17871.59961,1.61621.14941-.32031.28516-.62891.4082-.92773.12207-.29883.20508-.51758.24805-.65625.0957.0752.23145.16016.4082.25586.17578.09668.36719.18945.57617.28027.20703.09082.39062.15723.55078.2002-.05273.1709-.13281.38672-.23926.64746-.10645.26172-.22168.53418-.34473.81641-.12207.28223-.24219.54102-.35938.77637-.11719.23438-.22461.41602-.32031.54395-.18164.26562-.40234.42578-.66406.47949s-.50391.01562-.72754-.1123c-.4375-.25586-.81934-.69043-1.14355-1.30371-.32617-.61328-.57617-1.36035-.75195-2.24023-.17676-.87988-.26465-1.84766-.26465-2.90332v-.5127h-2.71973l1.56836.87988c-.5127.84277-1.14258,1.64844-1.88867,2.41602.40527.36328.78711.72559,1.14453,1.08887.35742.3623.67969.71387.9668,1.05566-.24414.19238-.50098.41309-.76758.66406-.2666.25-.49609.48242-.6875.69629-.23438-.30957-.52832-.66211-.88086-1.05664-.35156-.39453-.74023-.78906-1.16797-1.18359-.69336.55469-1.42871,1.05078-2.20703,1.48828-.7793.43652-1.57422.79395-2.38477,1.07129ZM57.7207,50.67969v-1.45605h8.04688v1.45605h-8.04688Z"/><path class="cls-2" d="M69.65625,49.87988v-1.45605h6.04785v1.45605h-6.04785ZM76.07227,60.16797c-.0752-.23438-.19238-.50684-.35156-.81641-.16016-.30859-.32031-.54883-.48047-.71973v1.18457h-4.88086v-4.6084h4.88086v3.3916c.62891-.16992,1.2207-.39453,1.77539-.67188s1.06641-.5918,1.53613-.94336c-.3623-.46973-.67676-.96289-.94434-1.48047-.26562-.51758-.47949-1.04785-.63965-1.5918h-1.16797v-1.60059h1.04004c-.18164-.16992-.41016-.35938-.6875-.56738s-.53906-.37598-.78418-.50391c.34082-.28809.61816-.57324.83203-.85645.21289-.28223.37012-.61328.47168-.99219.10156-.37793.15234-.85059.15234-1.41602v-1.95117h5.07227v3.58398c0,.10645.02344.18066.07129.22363s.14648.06445.2959.06445h.28809c.18164,0,.31738-.08008.4082-.24023s.14648-.52832.16797-1.10449c.18066.08594.43457.1709.76074.25586.32422.08594.60938.14941.85547.19238-.04297.71484-.13672,1.2666-.28027,1.65625s-.35254.65527-.62402.7998c-.27148.14355-.63184.21582-1.08008.21582h-1.03906c-.61914,0-1.04688-.07715-1.28125-.23145-.23438-.15527-.35156-.44043-.35156-.85645v-2.97559h-1.45605v.49512c-.01074.90723-.14648,1.68555-.40723,2.33691-.26172.65039-.71875,1.27441-1.36914,1.87109h5.98438l.7041.7041c-.5332,1.50391-1.32812,2.83203-2.38379,3.98438.48047.35156,1.00488.65332,1.57617.9043.57031.25,1.16992.43457,1.7998.55176-.1709.20312-.35254.47168-.54395.80762-.19238.33594-.33105.61621-.41602.83984-.74707-.16992-1.43555-.41016-2.06445-.71973s-1.19922-.67676-1.71191-1.10352c-.5332.41602-1.1123.78418-1.73535,1.10352-.625.32031-1.28906.58105-1.99219.78418ZM70.42383,52.13574v-1.47168h4.65625v1.47168h-4.65625ZM70.42383,54.3916v-1.47168h4.65625v1.47168h-4.65625ZM70.43945,47.63965v-1.50391h4.64062v1.50391h-4.64062ZM71.99219,58.34375h1.61523v-1.66406h-1.61523v1.66406ZM79.86328,55.7998c.53418-.59668.94531-1.22656,1.23242-1.8877h-2.35156c.23438.67188.60742,1.30176,1.11914,1.8877Z"/><path class="cls-2" d="M87.28809,60.16797v-7.3916c-.11816.18066-.2373.35938-.36035.53516-.12305.17676-.24805.33887-.37598.48828-.1709-.19141-.39453-.40234-.67188-.63184s-.5332-.39746-.76855-.50391c.38477-.44824.75586-.97852,1.11328-1.5918.35645-.61328.68164-1.25391.97559-1.91992.29297-.66699.54395-1.31445.75195-1.94434.20801-.62891.35449-1.18359.44043-1.66406l1.82324.41602c-.13867.55469-.30664,1.11523-.50391,1.67969-.19727.56543-.41309,1.13086-.64746,1.69629v9.13574c.37305-.75684.62891-1.63184.76758-2.62402.13867-.99121.20801-2.08496.20801-3.2793v-2.99219h2.47949v-1.05664h-2.25586v-1.53516h2.25586v-1.36035h1.75977v1.36035h1.39258v-1.36035h1.75977v1.36035h2.32031v1.53516h-2.32031v1.05664h2.73633v1.56738h-8.46387v1.4248c0,1.65332-.1123,3.06934-.33594,4.24805s-.59766,2.19434-1.12012,3.04785c-.13867-.11816-.31738-.23242-.53613-.34473-.21875-.11133-.43457-.20508-.64746-.2793v.92773h-1.77637ZM92.42383,60.15234v-8.24023h7.13672l-.0166,6.84766c0,.49121-.12598.8457-.37598,1.06445s-.6582.32812-1.22461.32812h-.60742c-.02148-.21387-.06445-.48047-.12793-.80078-.06348-.31934-.13379-.56445-.20801-.73535h.54395c.18066,0,.30176-.02441.36035-.07227s.08789-.16211.08789-.34375v-.52832h-1.24805v2.14453h-1.53613v-2.14453h-1.21582v2.48047h-1.56836ZM93.99219,54.21582h1.21582v-.91211h-1.21582v.91211ZM93.99219,56.4082h1.21582v-.92773h-1.21582v.92773ZM94.2793,49.57617h1.39258v-1.05664h-1.39258v1.05664ZM96.74414,54.21582h1.24805v-.91211h-1.24805v.91211ZM96.74414,56.4082h1.24805v-.92773h-1.24805v.92773Z"/></g></svg>